<?xml version="1.0" encoding="UTF-8"?>
<svg id="_레이어_1" data-name="레이어_1" xmlns="http://www.w3.org/2000/svg" version="1.1" viewBox="0 0 841.89 163.3">
  <!-- Generator: Adobe Illustrator 29.3.1, SVG Export Plug-In . SVG Version: 2.1.0 Build 151)  -->
  <defs>
    <style>
      .st0 {
        fill: #fff;
      }
    </style>
  </defs>
  <g>
    <circle class="st0" cx="124.27" cy="34.68" r="10.37"/>
    <path class="st0" d="M130.99,74.47c.27,2.19.43,4.41.43,6.67,0,29.61-24,53.61-53.61,53.61s-53.61-24-53.61-53.61,24-53.61,53.61-53.61c2.26,0,4.48.16,6.67.43V3.63c-2.2-.19-4.42-.31-6.67-.31C34.91,3.33,0,38.24,0,81.14s34.91,77.81,77.81,77.81,77.81-34.91,77.81-77.81c0-2.25-.12-4.47-.31-6.67h-24.32Z"/>
    <path class="st0" d="M121.72,74.47h-27.82l9.19-9.19-9.43-9.43-9.18,9.18v-27.81c-2.18-.33-4.4-.5-6.67-.5s-4.49.17-6.67.5v27.82l-9.19-9.19-9.43,9.43,9.18,9.18h-12.98v13.34h12.98l-19.65,19.65c2.65,3.6,5.83,6.78,9.43,9.43l19.66-19.66v12.99h13.34v-12.98l19.66,19.66c3.6-2.65,6.78-5.83,9.43-9.43l-19.66-19.66h27.81c.33-2.18.5-4.4.5-6.67s-.17-4.49-.5-6.67Z"/>
  </g>
  <g>
    <path class="st0" d="M204.96,84.1v-42.1h64.77v10.53h-52.83v20.95h52.83v10.63h-52.83v31.58h-11.94v-31.58Z"/>
    <path class="st0" d="M442.34,52.53h-27.12v-10.53h65.99v10.53h-27.12v63.16h-11.74v-63.16Z"/>
    <g>
      <path class="st0" d="M568.84,42h8.1l29.35,29.35,29.55-29.35h7.89v73.68h-11.74v-54.25l-25.71,24.7-25.71-24.7v54.25h-11.74V42Z"/>
      <path class="st0" d="M657.5,42h11.94v73.68h-11.94V42Z"/>
      <path class="st0" d="M683.2,42h10.12l53.03,56.07v-56.07h11.94v73.68h-10.12l-53.03-56.07v56.07h-11.94V42Z"/>
      <path class="st0" d="M772.06,42h32.39c21.46,0,37.45,15.18,37.45,36.84,0,20.44-17,36.84-37.45,36.84h-32.39V42ZM804.44,105.16c14.57,0,25.5-11.54,25.5-26.32s-10.93-26.31-25.5-26.31h-20.45v52.63h20.45Z"/>
    </g>
    <path class="st0" d="M331.63,115.68h11.74l-31.58-73.68h-10.53l-31.58,73.68h11.94l8.73-21.05h32.45l8.82,21.05ZM294.75,84.06l11.79-28.29,11.85,28.29h-23.64Z"/>
    <path class="st0" d="M409.39,102.75l-8.29-8.29c-.7.92-1.46,1.8-2.3,2.64s-1.72,1.6-2.64,2.3c-3.63,2.76-7.81,4.44-12.12,5.02-2.32.32-4.67.32-6.99,0-5.4-.73-10.61-3.17-14.76-7.32s-6.59-9.36-7.32-14.76c-.32-2.32-.32-4.67,0-6.99.73-5.4,3.17-10.61,7.32-14.76,9.24-9.24,23.75-10.01,33.87-2.3.92.7,1.8,1.46,2.64,2.3.84.84,1.6,1.72,2.3,2.64l8.29-8.29c-.74-.89-1.52-1.76-2.35-2.59-.83-.83-1.7-1.61-2.59-2.35-14.71-12.21-36.63-11.43-50.41,2.35-6.42,6.42-10.01,14.6-10.79,23-.22,2.32-.22,4.67,0,6.99.78,8.4,4.38,16.59,10.79,23,6.42,6.42,14.6,10.01,23,10.79,2.32.22,4.67.22,6.99,0,7.31-.68,14.45-3.5,20.41-8.44.89-.74,1.76-1.52,2.59-2.35.83-.83,1.61-1.7,2.35-2.59Z"/>
    <path class="st0" d="M523.46,53.02c14.26,0,25.82,11.56,25.82,25.82s-11.56,25.82-25.82,25.82-25.82-11.56-25.82-25.82,11.56-25.82,25.82-25.82M523.46,41.36c-20.66,0-37.48,16.81-37.48,37.48s16.81,37.48,37.48,37.48,37.48-16.81,37.48-37.48-16.81-37.48-37.48-37.48h0Z"/>
  </g>
</svg>